<svg viewBox="0 0 200 200" xmlns="http://www.w3.org/2000/svg">
  <defs>
    <radialGradient id="nlchBg" cx="38%" cy="32%" r="78%">
      <stop offset="0%" stop-color="#4A5D80"></stop>
      <stop offset="35%" stop-color="#36486A"></stop>
      <stop offset="78%" stop-color="#24314C"></stop>
      <stop offset="100%" stop-color="#0A1426"></stop>
    </radialGradient>
    <radialGradient id="nlchFlare" cx="50%" cy="50%" r="50%">
      <stop offset="0%" stop-color="#FFFDF8" stop-opacity="0.4"></stop>
      <stop offset="60%" stop-color="#FFFDF8" stop-opacity="0.06"></stop>
      <stop offset="100%" stop-color="#FFFDF8" stop-opacity="0"></stop>
    </radialGradient>
    <linearGradient id="nlchRim" x1="0%" y1="0%" x2="0%" y2="100%">
      <stop offset="0%" stop-color="#586C90"></stop>
      <stop offset="100%" stop-color="#0A1426"></stop>
    </linearGradient>
    <linearGradient id="nlchBody" x1="0%" y1="0%" x2="0%" y2="100%">
      <stop offset="0%" stop-color="#A07B36"></stop>
      <stop offset="100%" stop-color="#6B4F1F"></stop>
    </linearGradient>
    <linearGradient id="nlchLid" x1="0%" y1="0%" x2="0%" y2="100%">
      <stop offset="0%" stop-color="#D8A83F"></stop>
      <stop offset="100%" stop-color="#8C6620"></stop>
    </linearGradient>
  </defs>
  <ellipse cx="100" cy="184" rx="64" ry="8" fill="#061B36" opacity="0.22"></ellipse>
  <circle cx="100" cy="106" r="84" fill="#06101F"></circle>
  <circle cx="100" cy="100" r="84" fill="url(#nlchRim)"></circle>
  <circle cx="100" cy="100" r="76" fill="url(#nlchBg)"></circle>
  <circle cx="100" cy="100" r="76" fill="none" stroke="#FFFDF8" stroke-width="5" opacity="0.85"></circle>
  <ellipse cx="80" cy="64" rx="34" ry="14" fill="url(#nlchFlare)"></ellipse>
  
  <g opacity="0.85">
    
    <ellipse cx="100" cy="138" rx="38" ry="4" fill="#0A1426" opacity="0.5"></ellipse>
    
    <rect x="64" y="98" width="72" height="38" rx="4" fill="url(#nlchBody)"></rect>
    
    <rect x="64" y="98" width="72" height="38" rx="4" fill="none" stroke="#5A3E14" stroke-width="2"></rect>
    <line x1="80" y1="98" x2="80" y2="136" stroke="#D8A83F" stroke-width="3" opacity="0.7"></line>
    <line x1="120" y1="98" x2="120" y2="136" stroke="#D8A83F" stroke-width="3" opacity="0.7"></line>
    
    <path d="M 64 98 Q 64 76 100 76 Q 136 76 136 98 Z" fill="url(#nlchLid)"></path>
    <path d="M 64 98 Q 64 76 100 76 Q 136 76 136 98" fill="none" stroke="#5A3E14" stroke-width="2"></path>
    <path d="M 70 96 Q 70 82 100 82 Q 130 82 130 96" stroke="#F2C65A" stroke-width="1.5" fill="none" opacity="0.7"></path>
    
    <rect x="92" y="92" width="16" height="18" rx="2" fill="#D8A83F" stroke="#5A3E14" stroke-width="1.5"></rect>
    <circle cx="100" cy="100" r="3" fill="#5A3E14"></circle>
    
    <circle cx="78" cy="118" r="2.5" fill="#E89B3D" opacity="0.8"></circle>
    <circle cx="122" cy="118" r="2.5" fill="#8067D8" opacity="0.6"></circle>
    <circle cx="100" cy="124" r="2" fill="#2BB8A7" opacity="0.7"></circle>
  </g>
  
  <path d="M 70 70 L 72 76 L 78 78 L 72 80 L 70 86 L 68 80 L 62 78 L 68 76 Z" fill="#F2C65A" opacity="0.85"></path>
  <path d="M 134 76 L 135 80 L 139 81 L 135 82 L 134 86 L 133 82 L 129 81 L 133 80 Z" fill="#F2C65A" opacity="0.7"></path>
  
  <circle cx="160" cy="158" r="24" fill="#0A1426"></circle>
  <circle cx="160" cy="158" r="20" fill="#1A2742" stroke="#D8A83F" stroke-width="3"></circle>
  <path d="M 154 156 L 154 152 A 6 6 0 0 1 166 152 L 166 156" stroke="#D8A83F" stroke-width="2.5" fill="none" stroke-linecap="round"></path>
  <rect x="151" y="156" width="18" height="12" rx="2" fill="#D8A83F"></rect>
  <circle cx="160" cy="161" r="1.8" fill="#0A1426"></circle>
  <rect x="159" y="161" width="2" height="4" fill="#0A1426"></rect>
</svg>