<svg viewBox="0 0 200 200" xmlns="http://www.w3.org/2000/svg">
  <defs>
    <radialGradient id="nlbBg" cx="38%" cy="32%" r="78%">
      <stop offset="0%" stop-color="#4A5D80"></stop>
      <stop offset="35%" stop-color="#36486A"></stop>
      <stop offset="78%" stop-color="#24314C"></stop>
      <stop offset="100%" stop-color="#0A1426"></stop>
    </radialGradient>
    <radialGradient id="nlbFlare" cx="50%" cy="50%" r="50%">
      <stop offset="0%" stop-color="#FFFDF8" stop-opacity="0.35"></stop>
      <stop offset="60%" stop-color="#FFFDF8" stop-opacity="0.04"></stop>
      <stop offset="100%" stop-color="#FFFDF8" stop-opacity="0"></stop>
    </radialGradient>
    <linearGradient id="nlbRim" x1="0%" y1="0%" x2="0%" y2="100%">
      <stop offset="0%" stop-color="#586C90"></stop>
      <stop offset="100%" stop-color="#0A1426"></stop>
    </linearGradient>
    <linearGradient id="nlbCube" x1="0%" y1="0%" x2="0%" y2="100%">
      <stop offset="0%" stop-color="#D8A83F" stop-opacity="0.55"></stop>
      <stop offset="100%" stop-color="#B88523" stop-opacity="0.4"></stop>
    </linearGradient>
  </defs>
  <ellipse cx="100" cy="184" rx="64" ry="8" fill="#061B36" opacity="0.22"></ellipse>
  <circle cx="100" cy="106" r="84" fill="#06101F"></circle>
  <circle cx="100" cy="100" r="84" fill="url(#nlbRim)"></circle>
  <circle cx="100" cy="100" r="76" fill="url(#nlbBg)"></circle>
  <circle cx="100" cy="100" r="76" fill="none" stroke="#FFFDF8" stroke-width="5" opacity="0.85"></circle>
  <ellipse cx="80" cy="64" rx="34" ry="14" fill="url(#nlbFlare)"></ellipse>
  
  <g opacity="0.85">
    
    <g transform="translate(74 60)">
      <path d="M 0 8 L 14 0 L 28 8 L 14 16 Z" fill="#F2C65A" opacity="0.7"></path>
      <path d="M 0 8 L 0 22 L 14 30 L 14 16 Z" fill="#B88523" opacity="0.7"></path>
      <path d="M 14 16 L 14 30 L 28 22 L 28 8 Z" fill="#D8A83F" opacity="0.7"></path>
    </g>
    
    <g transform="translate(98 60)">
      <path d="M 0 8 L 14 0 L 28 8 L 14 16 Z" fill="#F2C65A" opacity="0.7"></path>
      <path d="M 0 8 L 0 22 L 14 30 L 14 16 Z" fill="#B88523" opacity="0.7"></path>
      <path d="M 14 16 L 14 30 L 28 22 L 28 8 Z" fill="#D8A83F" opacity="0.7"></path>
    </g>
    
    <g transform="translate(74 92)">
      <path d="M 0 8 L 14 0 L 28 8 L 14 16 Z" fill="#F2C65A" opacity="0.7"></path>
      <path d="M 0 8 L 0 22 L 14 30 L 14 16 Z" fill="#B88523" opacity="0.7"></path>
      <path d="M 14 16 L 14 30 L 28 22 L 28 8 Z" fill="#D8A83F" opacity="0.7"></path>
    </g>
    
    <g transform="translate(98 92)">
      <path d="M 0 8 L 14 0 L 28 8 L 14 16 Z" fill="#F2C65A" opacity="0.7"></path>
      <path d="M 0 8 L 0 22 L 14 30 L 14 16 Z" fill="#B88523" opacity="0.7"></path>
      <path d="M 14 16 L 14 30 L 28 22 L 28 8 Z" fill="#D8A83F" opacity="0.7"></path>
    </g>
  </g>
  <circle cx="68" cy="56" r="4" fill="#FFFDF8" opacity="0.4"></circle>
  
  <circle cx="160" cy="158" r="24" fill="#0A1426"></circle>
  <circle cx="160" cy="158" r="20" fill="#1A2742" stroke="#D8A83F" stroke-width="3"></circle>
  <path d="M 154 156 L 154 152 A 6 6 0 0 1 166 152 L 166 156" stroke="#D8A83F" stroke-width="2.5" fill="none" stroke-linecap="round"></path>
  <rect x="151" y="156" width="18" height="12" rx="2" fill="#D8A83F"></rect>
  <circle cx="160" cy="161" r="1.8" fill="#0A1426"></circle>
  <rect x="159" y="161" width="2" height="4" fill="#0A1426"></rect>
</svg>