<svg viewBox="0 0 200 200" xmlns="http://www.w3.org/2000/svg">
  <defs>
    <radialGradient id="ndBg" cx="38%" cy="32%" r="78%">
      <stop offset="0%" stop-color="#7FE0B0"></stop>
      <stop offset="35%" stop-color="#4DCA8C"></stop>
      <stop offset="78%" stop-color="#2DA064"></stop>
      <stop offset="100%" stop-color="#1B7849"></stop>
    </radialGradient>
    <radialGradient id="ndFlare" cx="50%" cy="50%" r="50%">
      <stop offset="0%" stop-color="#FFFDF8" stop-opacity="0.65"></stop>
      <stop offset="60%" stop-color="#FFFDF8" stop-opacity="0.07"></stop>
      <stop offset="100%" stop-color="#FFFDF8" stop-opacity="0"></stop>
    </radialGradient>
    <linearGradient id="ndRim" x1="0%" y1="0%" x2="0%" y2="100%">
      <stop offset="0%" stop-color="#9FECC2"></stop>
      <stop offset="100%" stop-color="#1B7849"></stop>
    </linearGradient>
  </defs>
  <ellipse cx="100" cy="184" rx="64" ry="8" fill="#061B36" opacity="0.18"></ellipse>
  <circle cx="100" cy="106" r="84" fill="#176A3E"></circle>
  <circle cx="100" cy="100" r="84" fill="url(#ndRim)"></circle>
  <circle cx="100" cy="100" r="76" fill="url(#ndBg)"></circle>
  <circle cx="100" cy="100" r="76" fill="none" stroke="#FFFDF8" stroke-width="5" opacity="0.95"></circle>
  <ellipse cx="80" cy="64" rx="34" ry="14" fill="url(#ndFlare)"></ellipse>
  
  <path d="M 64 116 A 36 36 0 0 1 136 116" stroke="#FFFDF8" stroke-width="6" stroke-linecap="round" fill="none"></path>
  <path d="M 64 116 A 36 36 0 0 1 80 90" stroke="#1B7849" stroke-width="6" stroke-linecap="round" fill="none" opacity="0.5"></path>
  <line x1="100" y1="116" x2="124" y2="86" stroke="#FFFDF8" stroke-width="5" stroke-linecap="round"></line>
  <circle cx="100" cy="116" r="6" fill="#FFFDF8"></circle>
  <circle cx="100" cy="116" r="3" fill="#1B7849"></circle>
  
  <circle cx="70" cy="100" r="2" fill="#FFFDF8" opacity="0.7"></circle>
  <circle cx="130" cy="100" r="2" fill="#FFFDF8" opacity="0.7"></circle>
  <circle cx="100" cy="80" r="2" fill="#FFFDF8" opacity="0.7"></circle>
  <circle cx="68" cy="56" r="5" fill="#FFFDF8" opacity="0.7"></circle>
  
  <circle cx="160" cy="158" r="24" fill="#0E5A37"></circle>
  <circle cx="160" cy="158" r="20" fill="#1B7849" stroke="#FFFDF8" stroke-width="3"></circle>
  <path d="M 150 158 L 157 165 L 170 152" stroke="#FFFDF8" stroke-width="4" stroke-linecap="round" stroke-linejoin="round" fill="none"></path>
</svg>