<svg viewBox="0 0 200 200" xmlns="http://www.w3.org/2000/svg">
  <defs>
    <radialGradient id="nlcBg" cx="38%" cy="32%" r="78%">
      <stop offset="0%" stop-color="#4A5D80"></stop>
      <stop offset="35%" stop-color="#36486A"></stop>
      <stop offset="78%" stop-color="#24314C"></stop>
      <stop offset="100%" stop-color="#0A1426"></stop>
    </radialGradient>
    <radialGradient id="nlcFlare" cx="50%" cy="50%" r="50%">
      <stop offset="0%" stop-color="#FFFDF8" stop-opacity="0.35"></stop>
      <stop offset="60%" stop-color="#FFFDF8" stop-opacity="0.04"></stop>
      <stop offset="100%" stop-color="#FFFDF8" stop-opacity="0"></stop>
    </radialGradient>
    <linearGradient id="nlcRim" x1="0%" y1="0%" x2="0%" y2="100%">
      <stop offset="0%" stop-color="#586C90"></stop>
      <stop offset="100%" stop-color="#0A1426"></stop>
    </linearGradient>
  </defs>
  <ellipse cx="100" cy="184" rx="64" ry="8" fill="#061B36" opacity="0.22"></ellipse>
  <circle cx="100" cy="106" r="84" fill="#06101F"></circle>
  <circle cx="100" cy="100" r="84" fill="url(#nlcRim)"></circle>
  <circle cx="100" cy="100" r="76" fill="url(#nlcBg)"></circle>
  <circle cx="100" cy="100" r="76" fill="none" stroke="#FFFDF8" stroke-width="5" opacity="0.85"></circle>
  <ellipse cx="80" cy="64" rx="34" ry="14" fill="url(#nlcFlare)"></ellipse>
  
  <g opacity="0.9">
    <rect x="72" y="62" width="56" height="72" rx="6" fill="#F2C65A" opacity="0.75"></rect>
    <rect x="72" y="62" width="56" height="72" rx="6" fill="none" stroke="#B88523" stroke-width="2" opacity="0.7"></rect>
    <rect x="86" y="56" width="28" height="14" rx="3" fill="#D8A83F" opacity="0.85"></rect>
    <rect x="94" y="52" width="12" height="8" rx="2" fill="#B88523" opacity="0.85"></rect>
    
    <path d="M 82 96 L 92 106 L 118 80" stroke="#0A1426" stroke-width="5" stroke-linecap="round" stroke-linejoin="round" fill="none" opacity="0.6"></path>
    
    <line x1="82" y1="116" x2="118" y2="116" stroke="#B88523" stroke-width="2" opacity="0.5" stroke-linecap="round"></line>
    <line x1="82" y1="124" x2="108" y2="124" stroke="#B88523" stroke-width="2" opacity="0.5" stroke-linecap="round"></line>
  </g>
  <circle cx="68" cy="56" r="4" fill="#FFFDF8" opacity="0.4"></circle>
  
  <circle cx="160" cy="158" r="24" fill="#0A1426"></circle>
  <circle cx="160" cy="158" r="20" fill="#1A2742" stroke="#D8A83F" stroke-width="3"></circle>
  <path d="M 154 156 L 154 152 A 6 6 0 0 1 166 152 L 166 156" stroke="#D8A83F" stroke-width="2.5" fill="none" stroke-linecap="round"></path>
  <rect x="151" y="156" width="18" height="12" rx="2" fill="#D8A83F"></rect>
  <circle cx="160" cy="161" r="1.8" fill="#0A1426"></circle>
  <rect x="159" y="161" width="2" height="4" fill="#0A1426"></rect>
</svg>