<svg viewBox="0 0 1200 2400" xmlns="http://www.w3.org/2000/svg" preserveAspectRatio="xMidYMid slice">
  <defs>
    <linearGradient id="bgSky" x1="0%" y1="0%" x2="0%" y2="100%">
      <stop offset="0%" stop-color="#FAF7F0"></stop>
      <stop offset="50%" stop-color="#F8F4EA"></stop>
      <stop offset="100%" stop-color="#F2EBD8"></stop>
    </linearGradient>
    <radialGradient id="bgGlow" cx="50%" cy="8%" r="50%">
      <stop offset="0%" stop-color="#F2C65A" stop-opacity="0.18"></stop>
      <stop offset="60%" stop-color="#F2C65A" stop-opacity="0.04"></stop>
      <stop offset="100%" stop-color="#F2C65A" stop-opacity="0"></stop>
    </radialGradient>
    <linearGradient id="pineLg" x1="0%" y1="0%" x2="0%" y2="100%">
      <stop offset="0%" stop-color="#5C8770"></stop>
      <stop offset="100%" stop-color="#3F6B54"></stop>
    </linearGradient>
    <linearGradient id="pineMd" x1="0%" y1="0%" x2="0%" y2="100%">
      <stop offset="0%" stop-color="#6E957D"></stop>
      <stop offset="100%" stop-color="#4F7D63"></stop>
    </linearGradient>
    <linearGradient id="pineSm" x1="0%" y1="0%" x2="0%" y2="100%">
      <stop offset="0%" stop-color="#8AA995"></stop>
      <stop offset="100%" stop-color="#6B8C75"></stop>
    </linearGradient>
    <symbol id="pineL" viewBox="0 0 60 90">
      <ellipse cx="30" cy="86" rx="14" ry="2.5" fill="#061B36" opacity="0.12"></ellipse>
      <rect x="27" y="74" width="6" height="14" rx="1" fill="#5A3E14" opacity="0.7"></rect>
      <path d="M 30 8 L 16 36 L 24 36 L 12 58 L 22 58 L 8 80 L 52 80 L 38 58 L 48 58 L 36 36 L 44 36 Z" fill="url(#pineLg)"></path>
      <path d="M 30 8 L 24 22 L 30 22 Z" fill="#FFFDF8" opacity="0.1"></path>
    </symbol>
    <symbol id="pineM" viewBox="0 0 60 90">
      <ellipse cx="30" cy="86" rx="12" ry="2" fill="#061B36" opacity="0.1"></ellipse>
      <rect x="27.5" y="76" width="5" height="12" rx="1" fill="#5A3E14" opacity="0.6"></rect>
      <path d="M 30 14 L 18 38 L 24 38 L 14 60 L 22 60 L 10 80 L 50 80 L 38 60 L 46 60 L 36 38 L 42 38 Z" fill="url(#pineMd)"></path>
    </symbol>
    <symbol id="pineS" viewBox="0 0 60 90">
      <ellipse cx="30" cy="86" rx="10" ry="2" fill="#061B36" opacity="0.08"></ellipse>
      <path d="M 30 24 L 20 44 L 26 44 L 18 62 L 24 62 L 14 80 L 46 80 L 36 62 L 42 62 L 34 44 L 40 44 Z" fill="url(#pineSm)"></path>
    </symbol>
  </defs>

  
  <rect width="1200" height="2400" fill="url(#bgSky)"></rect>
  <rect width="1200" height="2400" fill="url(#bgGlow)"></rect>

  
  <g fill="#061B36" opacity="0.08">
    <path d="M 0 240 L 120 160 L 220 220 L 340 130 L 460 200 L 600 110 L 740 180 L 880 140 L 1020 210 L 1200 150 L 1200 320 L 0 320 Z"></path>
    <path d="M 0 760 L 140 690 L 280 740 L 420 660 L 560 720 L 720 650 L 860 710 L 1000 670 L 1200 720 L 1200 840 L 0 840 Z"></path>
    <path d="M 0 1280 L 130 1210 L 260 1270 L 400 1190 L 540 1240 L 680 1170 L 820 1230 L 980 1200 L 1200 1250 L 1200 1360 L 0 1360 Z"></path>
    <path d="M 0 1820 L 150 1740 L 300 1790 L 440 1720 L 600 1780 L 760 1700 L 900 1770 L 1060 1740 L 1200 1790 L 1200 1900 L 0 1900 Z"></path>
  </g>

  
  <g fill="#D8A83F" opacity="0.1">
    <path d="M 0 380 Q 200 320 400 360 Q 600 410 800 350 Q 1000 320 1200 380 L 1200 480 L 0 480 Z"></path>
    <path d="M 0 920 Q 220 870 420 910 Q 620 950 820 890 Q 1020 860 1200 920 L 1200 1010 L 0 1010 Z"></path>
    <path d="M 0 1450 Q 200 1390 400 1430 Q 600 1480 800 1420 Q 1000 1390 1200 1450 L 1200 1540 L 0 1540 Z"></path>
    <path d="M 0 1980 Q 200 1920 400 1960 Q 600 2010 800 1950 Q 1000 1920 1200 1980 L 1200 2080 L 0 2080 Z"></path>
  </g>

  
  <path d="M 600 0&#xA;           C 720 200 480 380 600 560&#xA;           C 720 740 480 920 600 1100&#xA;           C 720 1280 480 1460 600 1640&#xA;           C 720 1820 480 2000 600 2180&#xA;           L 600 2400" stroke="#D8A83F" stroke-width="120" fill="none" opacity="0.06" stroke-linecap="round"></path>

  
  <g opacity="0.7">
    <ellipse cx="200" cy="120" rx="120" ry="22" fill="#FFFDF8"></ellipse>
    <ellipse cx="280" cy="100" rx="80" ry="16" fill="#FFFDF8"></ellipse>
    <ellipse cx="900" cy="180" rx="140" ry="26" fill="#FFFDF8"></ellipse>
    <ellipse cx="1000" cy="160" rx="90" ry="18" fill="#FFFDF8"></ellipse>
    <ellipse cx="500" cy="240" rx="100" ry="20" fill="#FFFDF8" opacity="0.6"></ellipse>
  </g>
  
  <g opacity="0.4">
    <ellipse cx="150" cy="780" rx="200" ry="30" fill="#FFFDF8"></ellipse>
    <ellipse cx="1050" cy="1320" rx="220" ry="32" fill="#FFFDF8"></ellipse>
    <ellipse cx="200" cy="1880" rx="180" ry="28" fill="#FFFDF8"></ellipse>
  </g>

  
  <g opacity="0.55">
    <g transform="translate(160 540)">
      <ellipse cx="50" cy="40" rx="50" ry="6" fill="#061B36" opacity="0.2"></ellipse>
      <path d="M 10 35 Q 0 18 20 14 Q 32 6 48 14 Q 64 4 78 16 Q 96 18 90 38 Q 70 44 50 40 Q 28 42 10 35 Z" fill="#E6DDC4"></path>
      <path d="M 16 30 Q 26 22 38 24" stroke="#061B36" stroke-width="1" fill="none" opacity="0.3"></path>
    </g>
    <g transform="translate(960 1180)">
      <ellipse cx="50" cy="40" rx="50" ry="6" fill="#061B36" opacity="0.2"></ellipse>
      <path d="M 10 35 Q 0 18 20 14 Q 32 6 48 14 Q 64 4 78 16 Q 96 18 90 38 Q 70 44 50 40 Q 28 42 10 35 Z" fill="#E6DDC4"></path>
    </g>
    <g transform="translate(140 1720)">
      <ellipse cx="50" cy="40" rx="50" ry="6" fill="#061B36" opacity="0.2"></ellipse>
      <path d="M 10 35 Q 0 18 20 14 Q 32 6 48 14 Q 64 4 78 16 Q 96 18 90 38 Q 70 44 50 40 Q 28 42 10 35 Z" fill="#E6DDC4"></path>
    </g>
  </g>

  
  
  <use href="#pineL" x="60" y="380" width="90" height="135"></use>
  <use href="#pineM" x="180" y="460" width="60" height="90"></use>
  <use href="#pineS" x="280" y="510" width="40" height="60"></use>
  <use href="#pineM" x="90" y="560" width="60" height="90"></use>
  <use href="#pineL" x="140" y="700" width="80" height="120"></use>
  <use href="#pineS" x="60" y="820" width="40" height="60"></use>
  <use href="#pineM" x="220" y="860" width="55" height="82"></use>
  <use href="#pineL" x="80" y="1000" width="85" height="128"></use>
  <use href="#pineS" x="210" y="1080" width="42" height="63"></use>
  <use href="#pineM" x="130" y="1180" width="60" height="90"></use>
  <use href="#pineL" x="40" y="1320" width="80" height="120"></use>
  <use href="#pineM" x="190" y="1400" width="58" height="87"></use>
  <use href="#pineS" x="280" y="1460" width="38" height="57"></use>
  <use href="#pineL" x="100" y="1540" width="85" height="128"></use>
  <use href="#pineM" x="220" y="1640" width="60" height="90"></use>
  <use href="#pineS" x="60" y="1740" width="40" height="60"></use>
  <use href="#pineL" x="160" y="1860" width="80" height="120"></use>
  <use href="#pineM" x="80" y="2000" width="55" height="82"></use>
  <use href="#pineS" x="240" y="2080" width="40" height="60"></use>
  <use href="#pineL" x="120" y="2200" width="85" height="128"></use>

  
  <use href="#pineM" x="950" y="420" width="60" height="90"></use>
  <use href="#pineL" x="1050" y="500" width="85" height="128"></use>
  <use href="#pineS" x="900" y="580" width="40" height="60"></use>
  <use href="#pineM" x="1010" y="660" width="58" height="87"></use>
  <use href="#pineL" x="920" y="780" width="80" height="120"></use>
  <use href="#pineS" x="1070" y="880" width="42" height="63"></use>
  <use href="#pineM" x="960" y="960" width="60" height="90"></use>
  <use href="#pineL" x="1040" y="1080" width="85" height="128"></use>
  <use href="#pineS" x="920" y="1180" width="40" height="60"></use>
  <use href="#pineM" x="1020" y="1280" width="58" height="87"></use>
  <use href="#pineL" x="940" y="1400" width="82" height="123"></use>
  <use href="#pineS" x="1080" y="1500" width="40" height="60"></use>
  <use href="#pineM" x="980" y="1580" width="60" height="90"></use>
  <use href="#pineL" x="1050" y="1700" width="85" height="128"></use>
  <use href="#pineM" x="920" y="1820" width="60" height="90"></use>
  <use href="#pineS" x="1080" y="1900" width="38" height="57"></use>
  <use href="#pineL" x="990" y="2000" width="80" height="120"></use>
  <use href="#pineM" x="900" y="2120" width="58" height="87"></use>
  <use href="#pineL" x="1030" y="2240" width="85" height="128"></use>

  
  <rect width="1200" height="200" fill="url(#bgSky)" opacity="0.4"></rect>
</svg>