<svg viewBox="0 0 200 200" xmlns="http://www.w3.org/2000/svg">
  <defs>
    <linearGradient id="cuBody" x1="0%" y1="0%" x2="0%" y2="100%">
      <stop offset="0%" stop-color="#E0A540"></stop>
      <stop offset="100%" stop-color="#8C6620"></stop>
    </linearGradient>
    <linearGradient id="cuLid" x1="0%" y1="0%" x2="0%" y2="100%">
      <stop offset="0%" stop-color="#FFE19A"></stop>
      <stop offset="100%" stop-color="#B88523"></stop>
    </linearGradient>
    <radialGradient id="cuGlow" cx="50%" cy="50%" r="50%">
      <stop offset="0%" stop-color="#FFFDF8" stop-opacity="1"></stop>
      <stop offset="40%" stop-color="#F2C65A" stop-opacity="0.7"></stop>
      <stop offset="100%" stop-color="#D8A83F" stop-opacity="0"></stop>
    </radialGradient>
    <linearGradient id="cuBand" x1="0%" y1="0%" x2="0%" y2="100%">
      <stop offset="0%" stop-color="#F2C65A"></stop>
      <stop offset="100%" stop-color="#B88523"></stop>
    </linearGradient>
  </defs>
  <ellipse cx="100" cy="180" rx="74" ry="10" fill="#061B36" opacity="0.22"></ellipse>
  
  <circle cx="100" cy="90" r="90" fill="url(#cuGlow)" opacity="0.7"></circle>
  
  <rect x="32" y="100" width="136" height="72" rx="6" fill="url(#cuBody)"></rect>
  <rect x="32" y="100" width="136" height="72" rx="6" fill="none" stroke="#5A3E14" stroke-width="2.5"></rect>
  <rect x="52" y="100" width="10" height="72" fill="url(#cuBand)" opacity="0.9"></rect>
  <rect x="138" y="100" width="10" height="72" fill="url(#cuBand)" opacity="0.9"></rect>
  
  <g transform="translate(100 88) rotate(-12) translate(-100 -88)">
    <path d="M 32 100 Q 32 56 100 56 Q 168 56 168 100 Z" fill="url(#cuLid)"></path>
    <path d="M 32 100 Q 32 56 100 56 Q 168 56 168 100" fill="none" stroke="#5A3E14" stroke-width="2.5"></path>
    <path d="M 42 96 Q 42 66 100 66 Q 158 66 158 96" stroke="#FFFDF8" stroke-width="1.5" fill="none" opacity="0.7"></path>
  </g>
  
  <path d="M 34 100 Q 100 88 166 100 Q 100 96 34 100 Z" fill="#FFE19A" opacity="0.9"></path>
  <ellipse cx="100" cy="100" rx="58" ry="6" fill="#FFFDF8" opacity="0.8"></ellipse>
  
  <rect x="86" y="112" width="28" height="32" rx="3" fill="#D8A83F" stroke="#5A3E14" stroke-width="2"></rect>
  <circle cx="100" cy="124" r="4" fill="#5A3E14"></circle>
  
  <g fill="#F2C65A">
    <circle cx="60" cy="60" r="3"></circle>
    <circle cx="140" cy="50" r="2.5"></circle>
    <circle cx="100" cy="38" r="3.5"></circle>
    <circle cx="48" cy="80" r="2"></circle>
    <circle cx="156" cy="78" r="2"></circle>
  </g>
  <g fill="#FFFDF8">
    <circle cx="74" cy="48" r="1.5"></circle>
    <circle cx="120" cy="42" r="1.5"></circle>
    <circle cx="160" cy="60" r="1.8"></circle>
  </g>
  
  <path d="M 70 28 L 72 36 L 80 38 L 72 40 L 70 48 L 68 40 L 60 38 L 68 36 Z" fill="#F2C65A"></path>
  <path d="M 134 32 L 135 38 L 141 39 L 135 40 L 134 46 L 133 40 L 127 39 L 133 38 Z" fill="#FFE19A" opacity="0.9"></path>
  <ellipse cx="68" cy="74" rx="22" ry="6" fill="#FFFDF8" opacity="0.3"></ellipse>
</svg>